<svg width="60" height="45" viewBox="0 0 60 45" fill="none" xmlns="http://www.w3.org/2000/svg">
<path d="M59.1941 26.0621C58.984 26.2196 58.7449 26.3343 58.4905 26.3994C58.2361 26.4646 57.9714 26.4791 57.7114 26.4419C57.4514 26.4048 57.2013 26.3168 56.9753 26.183C56.7494 26.0492 56.552 25.8722 56.3944 25.6621C55.1891 24.0419 53.6202 22.7274 51.814 21.8243C50.0079 20.9213 48.0149 20.4549 45.9956 20.4627C45.6023 20.4627 45.2178 20.3467 44.8901 20.1293C44.5625 19.9118 44.3062 19.6026 44.1533 19.2403C44.0495 18.9943 43.996 18.73 43.996 18.4629C43.996 18.1959 44.0495 17.9315 44.1533 17.6855C44.3062 17.3232 44.5625 17.014 44.8901 16.7966C45.2178 16.5792 45.6023 16.4632 45.9956 16.4631C47.1176 16.463 48.2172 16.1483 49.1693 15.5546C50.1214 14.9609 50.888 14.1121 51.3819 13.1046C51.8758 12.0971 52.0773 10.9713 51.9634 9.85504C51.8495 8.73878 51.4249 7.67682 50.7378 6.78979C50.0506 5.90276 49.1285 5.22621 48.0761 4.83699C47.0237 4.44778 45.8833 4.36149 44.7843 4.58794C43.6853 4.81439 42.6719 5.34449 41.8591 6.11803C41.0463 6.89158 40.4667 7.87756 40.1862 8.96399C40.1206 9.21839 40.0055 9.45738 39.8474 9.66729C39.6894 9.87721 39.4916 10.054 39.2653 10.1874C39.039 10.3209 38.7886 10.4085 38.5284 10.4452C38.2683 10.4819 38.0034 10.467 37.749 10.4013C37.4946 10.3357 37.2556 10.2205 37.0457 10.0625C36.8358 9.90452 36.659 9.70671 36.5256 9.48039C36.3921 9.25408 36.3045 9.00368 36.2678 8.74352C36.2311 8.48335 36.246 8.21851 36.3117 7.9641C36.701 6.45755 37.4366 5.06267 38.4599 3.89044C39.4832 2.7182 40.766 1.80098 42.2061 1.21174C43.6463 0.622496 45.2041 0.377509 46.7556 0.496267C48.3071 0.615025 49.8095 1.09425 51.1432 1.89581C52.4769 2.69737 53.6051 3.79915 54.4381 5.11347C55.271 6.42778 55.7858 7.91837 55.9413 9.46662C56.0968 11.0149 55.8888 12.5781 55.3339 14.0318C54.779 15.4855 53.8924 16.7897 52.7448 17.8405C55.464 19.0178 57.8279 20.8862 59.6015 23.2599C59.7591 23.4705 59.8736 23.7101 59.9384 23.9651C60.0032 24.22 60.017 24.4852 59.9792 24.7455C59.9413 25.0058 59.8525 25.2561 59.7178 25.482C59.5831 25.7079 59.4051 25.905 59.1941 26.0621ZM45.7256 41.4603C45.8703 41.6879 45.9674 41.9425 46.0112 42.2086C46.055 42.4747 46.0445 42.747 45.9803 43.0089C45.9161 43.2709 45.7997 43.5172 45.6378 43.7329C45.476 43.9487 45.2722 44.1295 45.0387 44.2645C44.8052 44.3995 44.5468 44.4858 44.2791 44.5183C44.0114 44.5509 43.7398 44.5289 43.4808 44.4537C43.2218 44.3786 42.9806 44.2518 42.7718 44.0811C42.5631 43.9103 42.391 43.6991 42.266 43.4601C41.0062 41.327 39.2121 39.5592 37.0606 38.3312C34.9092 37.1031 32.4747 36.4572 29.9974 36.4572C27.5201 36.4572 25.0856 37.1031 22.9341 38.3312C20.7826 39.5592 18.9885 41.327 17.7288 43.4601C17.6037 43.6991 17.4317 43.9103 17.2229 44.0811C17.0141 44.2518 16.773 44.3786 16.514 44.4537C16.2549 44.5289 15.9834 44.5509 15.7157 44.5183C15.4479 44.4858 15.1895 44.3995 14.956 44.2645C14.7225 44.1295 14.5187 43.9487 14.3569 43.7329C14.1951 43.5172 14.0786 43.2709 14.0144 43.0089C13.9503 42.747 13.9398 42.4747 13.9835 42.2086C14.0273 41.9425 14.1245 41.6879 14.2691 41.4603C16.2079 38.1291 19.1641 35.5077 22.7032 33.9812C20.7117 32.4564 19.2482 30.346 18.5182 27.9464C17.7882 25.5469 17.8285 22.9789 18.6334 20.6034C19.4384 18.228 20.9675 16.1645 23.0058 14.703C25.0442 13.2416 27.4892 12.4556 29.9974 12.4556C32.5055 12.4556 34.9506 13.2416 36.9889 14.703C39.0273 16.1645 40.5564 18.228 41.3613 20.6034C42.1663 22.9789 42.2066 25.5469 41.4766 27.9464C40.7466 30.346 39.283 32.4564 37.2915 33.9812C40.8307 35.5077 43.7868 38.1291 45.7256 41.4603ZM29.9974 32.4613C31.5794 32.4613 33.126 31.9922 34.4414 31.1132C35.7569 30.2343 36.7821 28.985 37.3876 27.5234C37.993 26.0617 38.1514 24.4534 37.8428 22.9017C37.5341 21.35 36.7723 19.9247 35.6536 18.806C34.5349 17.6873 33.1096 16.9255 31.5579 16.6168C30.0062 16.3082 28.3979 16.4666 26.9363 17.072C25.4746 17.6775 24.2253 18.7027 23.3464 20.0182C22.4674 21.3336 21.9983 22.8802 21.9983 24.4622C21.9983 26.5837 22.841 28.6183 24.3412 30.1185C25.8413 31.6186 27.8759 32.4613 29.9974 32.4613ZM15.999 18.4629C15.999 17.9325 15.7883 17.4239 15.4132 17.0489C15.0382 16.6738 14.5296 16.4631 13.9992 16.4631C12.8771 16.463 11.7776 16.1483 10.8255 15.5546C9.87333 14.9609 9.10678 14.1121 8.61287 13.1046C8.11896 12.0971 7.91749 10.9713 8.03135 9.85504C8.14521 8.73878 8.56983 7.67682 9.25698 6.78979C9.94414 5.90276 10.8663 5.22621 11.9187 4.83699C12.971 4.44778 14.1115 4.36149 15.2105 4.58794C16.3094 4.81439 17.3229 5.34449 18.1357 6.11803C18.9484 6.89158 19.528 7.87756 19.8085 8.96399C19.9411 9.47778 20.2724 9.91787 20.7295 10.1874C21.1865 10.457 21.732 10.5339 22.2458 10.4013C22.7595 10.2687 23.1996 9.93746 23.4692 9.48039C23.7387 9.02332 23.8157 8.4779 23.6831 7.9641C23.2937 6.45755 22.5582 5.06267 21.5349 3.89044C20.5116 2.7182 19.2288 1.80098 17.7886 1.21174C16.3485 0.622496 14.7907 0.377509 13.2392 0.496267C11.6877 0.615025 10.1853 1.09425 8.85158 1.89581C7.51787 2.69737 6.38965 3.79915 5.55668 5.11347C4.72372 6.42778 4.20899 7.91837 4.05347 9.46662C3.89795 11.0149 4.10592 12.5781 4.66084 14.0318C5.21576 15.4855 6.10231 16.7897 7.24994 17.8405C4.53346 19.019 2.1723 20.8872 0.400713 23.2599C0.082158 23.6842 -0.0547984 24.2176 0.0199733 24.7429C0.094745 25.2682 0.37512 25.7423 0.799418 26.0608C1.22372 26.3794 1.75718 26.5163 2.28246 26.4415C2.80774 26.3668 3.2818 26.0864 3.60035 25.6621C4.80568 24.0419 6.37457 22.7274 8.18073 21.8243C9.98689 20.9213 11.9798 20.4549 13.9992 20.4627C14.5296 20.4627 15.0382 20.252 15.4132 19.877C15.7883 19.5019 15.999 18.9933 15.999 18.4629Z" fill="url(#paint0_linear_172_17)"/>
<defs>
<linearGradient id="paint0_linear_172_17" x1="-8.45359e-07" y1="-1.11881" x2="26.947" y2="58.8052" gradientUnits="userSpaceOnUse">
<stop stop-color="#108FE4"/>
<stop offset="1" stop-color="#3266DB"/>
</linearGradient>
</defs>
</svg>
