<svg width="60" height="60" viewBox="0 0 60 60" fill="none" xmlns="http://www.w3.org/2000/svg">
<path d="M37.5 9.375C37.5 7.89164 37.0602 6.4416 36.2361 5.20823C35.4119 3.97486 34.2406 3.01356 32.8702 2.44591C31.4997 1.87825 29.9917 1.72972 28.5369 2.01911C27.082 2.3085 25.7456 3.02281 24.6967 4.0717C23.6478 5.1206 22.9335 6.45697 22.6441 7.91183C22.3548 9.36668 22.5033 10.8747 23.0709 12.2451C23.6386 13.6156 24.5999 14.7869 25.8333 15.611C27.0666 16.4351 28.5167 16.875 30 16.875C31.9892 16.875 33.8968 16.0848 35.3033 14.6783C36.7099 13.2718 37.5 11.3641 37.5 9.375ZM30 13.125C29.2584 13.125 28.5333 12.9051 27.9166 12.493C27.3 12.081 26.8193 11.4953 26.5355 10.8101C26.2517 10.1248 26.1774 9.37084 26.3221 8.64341C26.4668 7.91599 26.8239 7.2478 27.3484 6.72335C27.8728 6.19891 28.541 5.84175 29.2684 5.69706C29.9959 5.55236 30.7499 5.62663 31.4351 5.91046C32.1203 6.19428 32.706 6.67493 33.118 7.29162C33.5301 7.9083 33.75 8.63332 33.75 9.375C33.75 10.3696 33.3549 11.3234 32.6517 12.0267C31.9484 12.7299 30.9946 13.125 30 13.125ZM51.1735 31.418L40.5868 19.4133C39.8829 18.6154 39.0172 17.9764 38.0474 17.5388C37.0776 17.1012 36.0257 16.8749 34.9618 16.875H25.0383C23.9743 16.8749 22.9225 17.1012 21.9526 17.5388C20.9828 17.9764 20.1172 18.6154 19.4133 19.4133L8.82659 31.418C7.96685 32.2973 7.48709 33.4792 7.49074 34.709C7.4944 35.9387 7.98117 37.1178 8.84613 37.992C9.71108 38.8662 10.8849 39.3654 12.1146 39.3821C13.3442 39.3988 14.5312 38.9316 15.4196 38.0813L19.2399 35.0156L15.3633 49.7531C14.8499 50.886 14.8075 52.1764 15.2455 53.3405C15.6835 54.5047 16.566 55.4471 17.6989 55.9605C18.8317 56.474 20.1222 56.5164 21.2863 56.0784C22.4504 55.6404 23.3928 54.7579 23.9063 53.625L30 43.1086L36.0938 53.625C36.6302 54.7199 37.572 55.5626 38.7195 55.9746C39.867 56.3865 41.1298 56.3351 42.24 55.8314C43.3503 55.3277 44.2206 54.4112 44.6663 53.2764C45.112 52.1416 45.098 50.8778 44.6274 49.7531L40.7602 35.0156L44.5805 38.0813C45.4689 38.9316 46.6558 39.3988 47.8855 39.3821C49.1151 39.3654 50.289 38.8662 51.1539 37.992C52.0189 37.1178 52.5057 35.9387 52.5093 34.709C52.513 33.4792 52.0332 32.2973 51.1735 31.418ZM48.4758 35.3484C48.3887 35.4356 48.2854 35.5048 48.1715 35.5519C48.0577 35.5991 47.9357 35.6234 47.8125 35.6234C47.6893 35.6234 47.5673 35.5991 47.4535 35.5519C47.3397 35.5048 47.2363 35.4356 47.1493 35.3484C47.1 35.3016 47.0508 35.2547 46.9969 35.2125L38.6719 28.5375C38.3647 28.2922 37.9881 28.1498 37.5955 28.1302C37.2028 28.1106 36.814 28.215 36.4839 28.4285C36.1538 28.642 35.8991 28.9538 35.756 29.32C35.6128 29.6861 35.5883 30.088 35.686 30.4688L41.0485 50.8594C41.0761 50.9681 41.1137 51.074 41.161 51.1758C41.2151 51.2876 41.2464 51.4091 41.2531 51.5332C41.2599 51.6572 41.2419 51.7814 41.2002 51.8984C41.1586 52.0155 41.0941 52.1231 41.0104 52.215C40.9268 52.3069 40.8258 52.3812 40.7132 52.4337C40.6006 52.4862 40.4786 52.5158 40.3545 52.5208C40.2303 52.5257 40.1065 52.506 39.99 52.4627C39.8736 52.4193 39.7669 52.3533 39.6762 52.2683C39.5855 52.1834 39.5126 52.0813 39.4618 51.968C39.4388 51.9173 39.413 51.868 39.3844 51.8203L31.6219 38.4375C31.4571 38.1534 31.2205 37.9175 30.9359 37.7536C30.6512 37.5896 30.3285 37.5033 30 37.5033C29.6716 37.5033 29.3488 37.5896 29.0642 37.7536C28.7796 37.9175 28.543 38.1534 28.3782 38.4375L20.625 51.8086C20.5965 51.8563 20.5706 51.9056 20.5477 51.9563C20.4956 52.068 20.422 52.1683 20.3312 52.2516C20.2403 52.3348 20.1339 52.3993 20.018 52.4414C19.8437 52.5053 19.6543 52.516 19.4738 52.4721C19.2934 52.4282 19.1301 52.3318 19.0045 52.195C18.879 52.0581 18.7969 51.8871 18.7687 51.7036C18.7405 51.52 18.7675 51.3323 18.8461 51.1641C18.8934 51.0623 18.931 50.9564 18.9586 50.8477L24.3141 30.4688C24.4118 30.088 24.3873 29.6861 24.2441 29.32C24.1009 28.9538 23.8463 28.642 23.5162 28.4285C23.1861 28.215 22.7972 28.1106 22.4046 28.1302C22.012 28.1498 21.6354 28.2922 21.3282 28.5375L13.0032 35.2125C12.9493 35.2547 12.9 35.3016 12.8508 35.3484C12.7647 35.4392 12.6613 35.5119 12.5467 35.5621C12.432 35.6123 12.3085 35.639 12.1834 35.6407C12.0583 35.6424 11.9341 35.6191 11.8181 35.572C11.7022 35.525 11.5968 35.4552 11.5083 35.3668C11.4197 35.2784 11.3497 35.1732 11.3025 35.0573C11.2552 34.9414 11.2317 34.8173 11.2332 34.6921C11.2346 34.567 11.2612 34.4435 11.3112 34.3287C11.3612 34.214 11.4336 34.1105 11.5243 34.0242C11.5524 33.9961 11.5782 33.968 11.6039 33.9375L22.2258 21.893C22.5779 21.4942 23.0107 21.175 23.4956 20.9564C23.9805 20.7378 24.5064 20.6248 25.0383 20.625H34.9618C35.4937 20.6248 36.0195 20.7378 36.5044 20.9564C36.9893 21.175 37.4222 21.4942 37.7743 21.893L48.3961 33.9375C48.4219 33.968 48.4477 33.9961 48.4758 34.0242C48.6511 34.2 48.7496 34.4381 48.7496 34.6863C48.7496 34.9346 48.6511 35.1727 48.4758 35.3484Z" fill="url(#paint0_linear_116_146)"/>
<defs>
<linearGradient id="paint0_linear_116_146" x1="7.49072" y1="-0.086575" x2="50.1196" y2="57.419" gradientUnits="userSpaceOnUse">
<stop stop-color="#108FE4"/>
<stop offset="1" stop-color="#3266DB"/>
</linearGradient>
</defs>
</svg>
