<svg width="96" height="39" viewBox="0 0 96 39" fill="none" xmlns="http://www.w3.org/2000/svg">
<path d="M2.47553 15.5998C3.57426 11.5093 8.19463 10.5152 12.4751 10.3998C15.9967 10.2857 19.8972 10.7827 19.8972 10.7827L18.042 17.5499C18.042 17.5499 14.1415 17.0909 10.6187 17.1682C6.37717 17.3204 1.71904 18.2764 0.6203 22.4062L2.47553 15.5998Z" fill="white"/>
<path d="M27.245 35.0998C13.725 33.9916 0.203754 27.4908 0.73365 21.9853L2.47558 15.5998C1.94568 20.9912 16.5267 27.53 29.1014 28.3327L27.245 35.0998ZM33.6462 19.5001C32.5475 23.5917 27.8894 24.5858 23.6478 24.7C20.125 24.8153 16.2246 24.3183 16.2246 24.3183L18.042 17.5499C18.042 17.5499 21.9425 18.0089 25.4653 17.9328C29.7446 17.8175 34.3638 16.8234 35.4637 12.7341L33.6462 19.5001Z" fill="#BCBCBC"/>
<path d="M7.02039 6.76715C19.5573 7.57098 34.1761 14.1086 33.6462 19.5L35.3881 13.1145C35.918 7.60903 22.359 1.10824 8.87679 0L7.02039 6.76715Z" fill="white"/>
<path d="M47.3562 12.2738C51.2945 12.2738 52.7343 15.1788 52.1654 17.7032C51.56 20.4179 49.2115 22.3681 45.7276 22.3681H42.5459L40.955 28.2945H37.3201L41.6371 12.2738H47.3562ZM43.038 20.456H44.4023C46.2197 20.456 48.265 19.3085 48.5305 17.3964C48.8326 15.3322 47.6595 14.1466 46.182 14.1466H44.7811L43.038 20.456ZM83.6004 23.1707H76.7838C76.556 25.273 77.617 26.6119 79.2834 26.6119C80.9498 26.6119 82.1618 25.6179 82.1618 25.6179L82.805 27.2624C82.805 27.2624 81.3664 28.524 78.5257 28.524C74.5108 28.524 73.0721 25.1208 73.5643 22.5583C74.1319 19.9209 76.3294 17.2442 79.3967 17.2442C84.3581 17.2442 84.0925 21.9471 83.6004 23.1707ZM77.0493 21.5262H80.8742C80.8742 21.5262 81.2908 19.0029 79.3967 19.0029C77.6807 19.0029 77.067 21.4893 77.0493 21.5262ZM77.0481 21.5262C77.0481 21.5274 77.0493 21.5274 77.0493 21.5262H77.0481ZM61.5206 8.41162C67.1642 8.41162 66.4065 13.9944 63.4148 13.9944C62.0128 13.9944 61.2173 12.885 61.5206 11.8148C61.7484 11.0122 62.5427 10.0181 60.9907 9.9408C59.5887 9.8647 58.6422 11.4319 58.0368 13.6115C57.7335 14.7971 57.3546 16.2501 56.9758 17.5879H64.0958L61.1796 28.2945H57.6957L60.0808 19.3466H56.4459L51.1434 38.9999H47.6595L53.643 16.8613C54.4384 13.8791 55.8771 8.41162 61.5206 8.41162ZM74.7008 17.5879L67.7319 26.4966H72.7311L72.2389 28.2945H62.3916L69.3605 19.3858H64.929L65.4211 17.5879H74.7008ZM93.1067 21.2586C91.6303 21.2586 91.7058 19.4238 90.9482 19.4999C90.3038 19.5761 88.9784 21.1064 88.2975 23.5524C87.8431 25.1208 87.0099 28.2565 87.0099 28.2565H83.5249L86.4411 17.5498H89.9261L89.3195 19.7675C89.3195 19.7675 90.6826 17.3964 92.9556 17.3964C95.7963 17.3964 95.3419 21.2967 93.1067 21.2586Z" fill="white"/>
</svg>
