<svg width="60" height="60" viewBox="0 0 60 60" fill="none" xmlns="http://www.w3.org/2000/svg">
<path d="M49.6875 35.625C49.6875 36.1813 49.5225 36.725 49.2135 37.1875C48.9045 37.6501 48.4652 38.0105 47.9513 38.2234C47.4374 38.4363 46.8719 38.492 46.3263 38.3835C45.7807 38.2749 45.2796 38.0071 44.8863 37.6137C44.4929 37.2204 44.2251 36.7193 44.1165 36.1737C44.008 35.6281 44.0637 35.0626 44.2766 34.5487C44.4895 34.0348 44.8499 33.5955 45.3125 33.2865C45.775 32.9775 46.3187 32.8125 46.875 32.8125C47.6209 32.8125 48.3363 33.1088 48.8637 33.6363C49.3912 34.1637 49.6875 34.8791 49.6875 35.625ZM48.6211 44.8336C48.2092 47.4887 46.8623 49.9092 44.8231 51.6587C42.784 53.4082 40.1868 54.3715 37.5 54.375H31.875C28.8923 54.3719 26.0326 53.1856 23.9235 51.0765C21.8144 48.9674 20.6281 46.1077 20.625 43.125V33.6305C17.0005 33.1738 13.6672 31.4101 11.2506 28.6704C8.83409 25.9306 7.50046 22.4032 7.5 18.75V9.375C7.5 8.38044 7.89509 7.42661 8.59835 6.72335C9.30161 6.02009 10.2554 5.625 11.25 5.625H15C15.4973 5.625 15.9742 5.82254 16.3258 6.17417C16.6775 6.52581 16.875 7.00272 16.875 7.5C16.875 7.99728 16.6775 8.47419 16.3258 8.82582C15.9742 9.17746 15.4973 9.375 15 9.375H11.25V18.75C11.2499 20.2401 11.5458 21.7153 12.1205 23.0901C12.6952 24.4649 13.5373 25.7118 14.5979 26.7585C15.6585 27.8051 16.9165 28.6306 18.2987 29.1871C19.681 29.7435 21.1601 30.0199 22.65 30C28.7695 29.9203 33.75 24.7852 33.75 18.5555V9.375H30C29.5027 9.375 29.0258 9.17746 28.6742 8.82582C28.3225 8.47419 28.125 7.99728 28.125 7.5C28.125 7.00272 28.3225 6.52581 28.6742 6.17417C29.0258 5.82254 29.5027 5.625 30 5.625H33.75C34.7446 5.625 35.6984 6.02009 36.4016 6.72335C37.1049 7.42661 37.5 8.38044 37.5 9.375V18.5555C37.5 26.2523 31.7508 32.6859 24.375 33.6281V43.125C24.375 45.1141 25.1652 47.0218 26.5717 48.4283C27.9782 49.8348 29.8859 50.625 31.875 50.625H37.5C39.2032 50.6222 40.8549 50.0408 42.1843 48.9762C43.5138 47.9117 44.4421 46.427 44.8172 44.7656C42.5527 44.257 40.5574 42.9265 39.2174 41.0315C37.8774 39.1366 37.2878 36.812 37.5629 34.5075C37.838 32.2029 38.9581 30.0824 40.7064 28.5561C42.4548 27.0298 44.7072 26.2062 47.0278 26.2448C49.3483 26.2834 51.5721 27.1814 53.2687 28.7651C54.9654 30.3487 56.0143 32.5053 56.2126 34.8177C56.4108 37.1301 55.7443 39.4338 54.342 41.2831C52.9397 43.1325 50.9012 44.3959 48.6211 44.8289V44.8336ZM52.5 35.625C52.5 34.5125 52.1701 33.4249 51.552 32.4999C50.9339 31.5749 50.0554 30.8539 49.0276 30.4282C47.9998 30.0024 46.8688 29.891 45.7776 30.1081C44.6865 30.3251 43.6842 30.8609 42.8975 31.6475C42.1109 32.4342 41.5751 33.4365 41.3581 34.5276C41.141 35.6188 41.2524 36.7498 41.6782 37.7776C42.1039 38.8054 42.8249 39.6839 43.7499 40.302C44.6749 40.9201 45.7625 41.25 46.875 41.25C48.3668 41.25 49.7976 40.6574 50.8525 39.6025C51.9074 38.5476 52.5 37.1168 52.5 35.625Z" fill="url(#paint0_linear_116_142)"/>
<defs>
<linearGradient id="paint0_linear_116_142" x1="7.5" y1="3.8705" x2="42.9942" y2="61.836" gradientUnits="userSpaceOnUse">
<stop stop-color="#108FE4"/>
<stop offset="1" stop-color="#3266DB"/>
</linearGradient>
</defs>
</svg>
